<?xml version="1.0" encoding="UTF-8" standalone="no"?>
<!DOCTYPE svg PUBLIC "-//W3C//DTD SVG 1.1//EN" "http://www.w3.org/Graphics/SVG/1.1/DTD/svg11.dtd">
<svg version="1.1" xmlns="http://www.w3.org/2000/svg" xmlns:xlink="http://www.w3.org/1999/xlink" preserveAspectRatio="xMidYMid meet" viewBox="0 0 640 640" width="640" height="640"><defs><path d="M480 80C480 41 480 19.33 480 15C480 6.75 473.25 0 465 0C460 0 420 0 415 0C406.75 0 400 6.75 400 15C400 19.33 400 41 400 80L240 80C240 41 240 19.33 240 15C240 6.75 233.25 0 225 0C220 0 180 0 175 0C166.75 0 160 6.75 160 15C160 19.33 160 41 160 80C124 80 104 80 100 80C66.88 80 40 106.88 40 140C40 184 40 536 40 580C40 613.13 66.88 640 100 640C144 640 496 640 540 640C573.13 640 600 613.13 600 580C600 536 600 184 600 140C600 106.88 573.13 80 540 80C532 80 512 80 480 80ZM107.5 580C103.38 580 100 576.63 100 572.5C100 547.67 100 423.5 100 200L540 200C540 423.5 540 547.67 540 572.5C540 576.63 536.63 580 532.5 580C447.5 580 150 580 107.5 580Z" id="e43MnI7j5z"></path><path d="M40 130.61L600 130.61L600 170.9L40 170.9L40 130.61Z" id="a1iDniMBaZ"></path><path d="M541.13 199.61L541.13 569.33L538.1 578.4L529.04 581.42L109.96 581.42L101.9 578.4L98.87 569.33L98.87 199.61L541.13 199.61Z" id="dv1ahq49b"></path></defs><g><g><g><use xlink:href="#e43MnI7j5z" opacity="1" fill="#b9b7c0" fill-opacity="1"></use><g><use xlink:href="#e43MnI7j5z" opacity="1" fill-opacity="0" stroke="#000000" stroke-width="1" stroke-opacity="0"></use></g></g><g><use xlink:href="#a1iDniMBaZ" opacity="1" fill="#1f1d29" fill-opacity="1"></use></g><g><use xlink:href="#dv1ahq49b" opacity="1" fill="#1f1d29" fill-opacity="1"></use></g></g></g></svg>