<?xml version="1.0" encoding="UTF-8" standalone="no"?>
<!DOCTYPE svg PUBLIC "-//W3C//DTD SVG 1.1//EN" "http://www.w3.org/Graphics/SVG/1.1/DTD/svg11.dtd">
<svg version="1.1" xmlns="http://www.w3.org/2000/svg" xmlns:xlink="http://www.w3.org/1999/xlink" preserveAspectRatio="xMidYMid meet" viewBox="0 0 640 640" width="640" height="640"><defs><path d="M217.83 60C178.7 60 144.95 68.1 116.92 78.96C119.7 70.62 120.62 61.78 119.6 53.05C116.33 24.47 92.71 1.99 64 0.13C29.05 -2.14 0 25.54 0 60C0 82.21 12.07 101.58 30 111.95C30 162.76 30 569.2 30 620C30 631.05 38.95 640 50 640C52 640 68 640 70 640C81.05 640 90 631.05 90 620C90 609.57 90 526.13 90 515.7C137.34 494.1 179.07 480 249.78 480C311.2 480 366.41 520 452.17 520C525.27 520 579.64 491.73 612.86 470.02C629.81 458.95 640 440.06 640 419.82C640 389.83 640 149.91 640 119.92C640 76.85 595.92 47.71 556.37 64.78C511.49 84.14 464.55 100 420.22 100C358.8 100 303.59 60 217.83 60ZM452.17 460C377.24 460 324.67 420 249.78 420C195.58 420 129.31 431.75 90 450C90 421 90 189 90 160C117.23 140.73 166.03 120 217.83 120C292.76 120 345.33 160 420.22 160C474.31 160 540.62 138.29 580 120C580 140 580 240 580 420C529.31 446.67 486.7 460 452.17 460Z" id="ihSfPaWFc"></path></defs><g><g><g><use xlink:href="#ihSfPaWFc" opacity="1" fill="#b9b7c0" fill-opacity="1"></use><g><use xlink:href="#ihSfPaWFc" opacity="1" fill-opacity="0" stroke="#000000" stroke-width="1" stroke-opacity="0"></use></g></g></g></g></svg>