<?xml version="1.0" encoding="UTF-8" standalone="no"?>
<!DOCTYPE svg PUBLIC "-//W3C//DTD SVG 1.1//EN" "http://www.w3.org/Graphics/SVG/1.1/DTD/svg11.dtd">
<svg version="1.1" xmlns="http://www.w3.org/2000/svg" xmlns:xlink="http://www.w3.org/1999/xlink" preserveAspectRatio="xMidYMid meet" viewBox="0 0 640 640" width="640" height="640"><defs><path d="M74.94 17.13C99.02 17.13 291.69 17.13 315.77 17.13C330.79 17.13 345.2 23.09 355.82 33.71C380.82 58.7 580.81 258.61 605.81 283.6C627.93 305.7 627.93 341.54 605.81 363.66C581.73 387.73 389.06 580.32 364.98 604.38C342.86 626.49 307 626.49 284.89 604.38C259.88 579.39 59.89 379.49 34.89 354.5C24.27 343.89 18.3 329.48 18.3 314.47C18.3 266.32 18.3 97.81 18.3 73.74C18.3 42.47 43.66 17.13 74.94 17.13ZM150.45 205.83C181.72 205.83 207.09 180.48 207.09 149.22C207.09 117.95 181.72 92.61 150.45 92.61C119.17 92.61 93.81 117.95 93.81 149.22C93.81 180.48 119.17 205.83 150.45 205.83Z" id="g6t6oniXR"></path></defs><g><g><g><use xlink:href="#g6t6oniXR" opacity="1" fill="#1f1d29" fill-opacity="1"></use><g><use xlink:href="#g6t6oniXR" opacity="1" fill-opacity="0" stroke="#ebe9ef" stroke-width="34" stroke-opacity="1"></use></g></g></g></g></svg>