<svg id="Icons" enable-background="new 0 0 512 512" height="512" viewBox="0 0 512 512" width="512" xmlns="http://www.w3.org/2000/svg"><g><circle cx="256" cy="256" fill="#2c7292" r="256"/><g><path d="m237.412 470.1c-.147 0-.295-.007-.444-.02-6.778-.597-13.594-1.524-20.258-2.754-2.715-.501-4.51-3.109-4.009-5.825.502-2.715 3.107-4.507 5.825-4.009 6.354 1.173 12.854 2.057 19.318 2.627 2.751.242 4.784 2.668 4.542 5.419-.228 2.601-2.411 4.562-4.974 4.562zm39.89-.237c-2.536 0-4.709-1.922-4.969-4.499-.277-2.748 1.726-5.199 4.474-5.476 6.449-.65 12.936-1.618 19.279-2.877 2.709-.541 5.34 1.223 5.878 3.931s-1.223 5.34-3.931 5.878c-6.654 1.321-13.459 2.336-20.225 3.018-.169.016-.338.025-.506.025zm-98.047-13.411c-.608 0-1.227-.112-1.826-.347-6.322-2.482-12.6-5.301-18.657-8.378-2.462-1.25-3.443-4.26-2.193-6.722 1.251-2.462 4.262-3.444 6.723-2.194 5.773 2.933 11.757 5.62 17.782 7.985 2.57 1.009 3.836 3.911 2.827 6.481-.774 1.971-2.66 3.175-4.656 3.175zm156.018-1.018c-1.972 0-3.84-1.173-4.631-3.111-1.044-2.556.183-5.475 2.738-6.519 5.993-2.447 11.939-5.214 17.676-8.225 2.442-1.283 5.466-.342 6.751 2.104 1.283 2.445.341 5.468-2.104 6.751-6.017 3.158-12.255 6.061-18.541 8.628-.619.252-1.26.372-1.889.372zm-207.934-28.54c-1.071 0-2.151-.343-3.063-1.051-5.359-4.164-10.586-8.637-15.535-13.297-2.011-1.893-2.105-5.057-.213-7.068 1.895-2.01 5.058-2.105 7.068-.212 4.719 4.443 9.703 8.709 14.814 12.68 2.181 1.694 2.575 4.835.881 7.016-.985 1.267-2.461 1.932-3.952 1.932zm259.461-1.699c-1.47 0-2.925-.645-3.912-1.883-1.722-2.159-1.367-5.305.792-7.027 5.063-4.037 9.995-8.365 14.656-12.865 1.987-1.917 5.151-1.861 7.07.125 1.918 1.987 1.861 5.152-.125 7.07-4.888 4.718-10.059 9.256-15.367 13.489-.921.735-2.021 1.091-3.114 1.091zm-300.969-41.265c-1.55 0-3.077-.718-4.056-2.07-3.981-5.505-7.745-11.264-11.186-17.118-1.399-2.381-.604-5.445 1.777-6.844 2.379-1.4 5.444-.604 6.844 1.777 3.281 5.583 6.87 11.075 10.668 16.325 1.618 2.237 1.116 5.363-1.121 6.981-.885.641-1.91.949-2.926.949zm341.936-2.215c-.995 0-2-.296-2.875-.913-2.258-1.59-2.799-4.709-1.209-6.967 3.729-5.295 7.246-10.832 10.454-16.458 1.368-2.399 4.42-3.235 6.821-1.866 2.398 1.368 3.233 4.421 1.866 6.82-3.365 5.9-7.055 11.708-10.966 17.261-.973 1.384-2.52 2.123-4.091 2.123zm-369.717-50.675c-2.059 0-3.986-1.281-4.713-3.332-2.27-6.409-4.254-12.998-5.896-19.584-.668-2.679.962-5.393 3.642-6.062 2.681-.668 5.393.962 6.062 3.642 1.565 6.277 3.456 12.557 5.619 18.665.922 2.603-.44 5.46-3.044 6.382-.553.196-1.116.289-1.67.289zm396.793-2.574c-.532 0-1.073-.085-1.605-.266-2.615-.886-4.018-3.725-3.131-6.34 2.077-6.13 3.881-12.435 5.362-18.739.632-2.688 3.318-4.354 6.011-3.724 2.688.632 4.355 3.323 3.724 6.011-1.554 6.615-3.446 13.23-5.626 19.661-.707 2.083-2.652 3.397-4.735 3.397zm-408.469-56.007c-2.639 0-4.846-2.066-4.988-4.733-.205-3.836-.309-7.732-.309-11.579 0-2.854.058-5.76.171-8.636l.009-.224c.11-2.758 2.411-4.907 5.194-4.797 2.76.11 4.907 2.436 4.798 5.195l-.009.22c-.108 2.746-.163 5.519-.163 8.242 0 3.669.099 7.386.295 11.046.147 2.757-1.969 5.112-4.727 5.259-.09.005-.181.007-.271.007zm419.367-2.724c-.067 0-.135-.001-.202-.004-2.76-.11-4.907-2.436-4.798-5.195l.02-.475c.107-2.712.162-5.485.162-8.208 0-3.743-.103-7.532-.306-11.261-.15-2.757 1.963-5.114 4.721-5.265s5.114 1.964 5.264 4.721c.213 3.91.321 7.881.321 11.805 0 2.854-.058 5.76-.171 8.636l-.019.445c-.107 2.691-2.323 4.801-4.992 4.801zm-414.125-56.782c-.377 0-.76-.043-1.143-.132-2.689-.629-4.359-3.319-3.729-6.008 1.548-6.619 3.435-13.236 5.605-19.667.884-2.617 3.724-4.021 6.337-3.138 2.616.883 4.021 3.721 3.138 6.337-2.069 6.129-3.867 12.436-5.344 18.746-.539 2.305-2.593 3.862-4.864 3.862zm408.034-3.081c-2.239 0-4.277-1.515-4.846-3.786-1.572-6.272-3.469-12.551-5.64-18.66-.924-2.602.437-5.461 3.038-6.385s5.46.435 6.386 3.038c2.276 6.41 4.267 12.996 5.916 19.577.671 2.679-.957 5.395-3.636 6.065-.406.102-.815.151-1.218.151zm-386.245-52.535c-.838 0-1.687-.211-2.467-.655-2.4-1.365-3.239-4.418-1.874-6.818 3.356-5.902 7.04-11.713 10.946-17.273 1.587-2.26 4.705-2.804 6.966-1.216 2.259 1.587 2.804 4.706 1.216 6.965-3.725 5.301-7.235 10.841-10.437 16.468-.92 1.62-2.61 2.529-4.35 2.529zm363.586-2.735c-1.713 0-3.381-.88-4.312-2.463-3.287-5.578-6.882-11.067-10.685-16.313-1.621-2.236-1.122-5.362 1.113-6.983 2.236-1.62 5.363-1.122 6.982 1.114 3.988 5.501 7.758 11.257 11.204 17.106 1.402 2.379.609 5.444-1.77 6.846-.795.469-1.669.693-2.532.693zm-326.958-44.466c-1.309 0-2.614-.51-3.595-1.524-1.92-1.985-1.867-5.15.118-7.07 4.886-4.725 10.051-9.269 15.353-13.505 2.155-1.724 5.303-1.373 7.027.785 1.724 2.157 1.372 5.303-.785 7.027-5.056 4.04-9.982 8.374-14.644 12.881-.97.939-2.223 1.406-3.474 1.406zm289.637-2.193c-1.228 0-2.457-.449-3.423-1.356-4.723-4.437-9.712-8.698-14.828-12.665-2.183-1.692-2.58-4.833-.888-7.015s4.833-2.581 7.015-.888c5.365 4.159 10.597 8.627 15.549 13.28 2.013 1.891 2.111 5.055.221 7.067-.985 1.048-2.314 1.577-3.646 1.577zm-241.243-32.846c-1.798 0-3.534-.972-4.43-2.674-1.285-2.444-.346-5.467 2.099-6.752 6.02-3.166 12.255-6.075 18.532-8.647 2.557-1.046 5.476.177 6.522 2.731 1.047 2.555-.176 5.476-2.731 6.522-5.984 2.451-11.929 5.225-17.669 8.244-.742.391-1.538.576-2.323.576zm192.336-1.466c-.76 0-1.531-.174-2.256-.541-5.782-2.93-11.769-5.61-17.791-7.966-2.572-1.006-3.841-3.906-2.835-6.478s3.91-3.841 6.478-2.834c6.32 2.473 12.602 5.285 18.668 8.358 2.463 1.248 3.448 4.257 2.2 6.72-.881 1.739-2.64 2.741-4.464 2.741zm-136.045-18.502c-2.335 0-4.423-1.645-4.897-4.022-.54-2.708 1.217-5.341 3.925-5.882 6.657-1.329 13.46-2.352 20.221-3.04 2.769-.279 5.201 1.721 5.481 4.468.279 2.747-1.721 5.201-4.468 5.48-6.445.656-12.932 1.631-19.277 2.898-.331.067-.66.098-.985.098zm79.451-.577c-.3 0-.604-.027-.909-.083-6.355-1.167-12.856-2.044-19.32-2.606-2.751-.24-4.787-2.664-4.548-5.415.24-2.751 2.668-4.797 5.415-4.548 6.777.589 13.594 1.509 20.26 2.732 2.716.499 4.513 3.105 4.015 5.821-.443 2.411-2.547 4.099-4.913 4.099z" fill="#1daccd"/></g><g><g><path d="m376.51 185.732c0 23.894-6.959 46.168-18.949 64.906-21.417 33.426-58.881 55.575-101.532 55.575-66.534 0-120.481-53.937-120.481-120.481 0-42.014 21.513-79.007 54.12-100.568 19.026-12.588 41.841-19.913 66.361-19.913 66.544 0 120.481 53.947 120.481 120.481z" fill="#4fcae8"/><path d="m355.469 206.773c0 23.894-6.959 46.168-18.949 64.906-2.005 3.133-4.154 6.169-6.439 9.099 0 0-.01.01-.01.019-20.424 15.923-46.12 25.417-74.043 25.417-66.534 0-120.481-53.937-120.481-120.481 0-27.903 9.484-53.59 25.417-74.014 2.477-1.937 5.031-3.778 7.663-5.513 19.026-12.588 41.841-19.913 66.361-19.913 66.544-.001 120.481 53.946 120.481 120.48z" fill="#22a8b9"/><path d="m234.988 86.292c-18.879 0-36.738 4.357-52.644 12.1-7.45 15.665-11.635 33.182-11.635 51.677 0 66.534 53.937 120.481 120.481 120.481 18.884 0 36.742-4.356 52.647-12.097 7.446-15.666 11.632-33.184 11.632-51.681 0-66.533-53.937-120.48-120.481-120.48z" fill="#22bce0"/><path d="m376.481 188.142c.019-.8.029-1.61.029-2.41s-.01-1.61-.029-2.41h-62.13c-.164-18.169-2.294-35.354-5.966-50.698 15.884-6.458 28.973-15.759 37.764-26.862-1.079-1.214-2.178-2.4-3.306-3.566-4.443 5.764-10.236 11.123-17.253 15.894-5.61 3.807-11.778 7.094-18.39 9.831-9.908-37.243-29.099-62.525-51.171-62.669h-.289c-22.111.077-41.339 25.378-51.257 62.669-6.612-2.737-12.781-6.024-18.39-9.831-6.949-4.713-12.675-9.995-17.089-15.682-1.118 1.166-2.217 2.361-3.287 3.585 8.781 11.007 21.802 20.222 37.58 26.631-3.672 15.344-5.802 32.53-5.966 50.698h-61.754c-.019.8-.029 1.61-.029 2.41s.01 1.61.029 2.41h61.754c.154 17.494 2.14 34.072 5.561 48.973-16.067 6.602-29.253 16.106-37.966 27.46 1.07 1.234 2.159 2.448 3.277 3.634 4.52-6.082 10.525-11.72 17.889-16.723 5.484-3.72 11.499-6.949 17.947-9.648 9.783 38.226 29.253 64.298 51.701 64.375h.289c22.409-.154 41.85-26.197 51.614-64.375 6.448 2.699 12.463 5.928 17.947 9.648 7.451 5.06 13.513 10.785 18.053 16.954 1.118-1.186 2.217-2.4 3.287-3.634-8.713-11.451-21.966-21.041-38.139-27.691 3.422-14.901 5.407-31.479 5.561-48.973zm-157.695-85.493c10.207-21.002 23.364-32.578 37.05-32.578s26.843 11.576 37.05 32.578c3.942 8.106 7.229 17.205 9.812 27.026-14.207 5.205-30.207 7.971-46.862 7.971s-32.655-2.766-46.862-7.971c2.583-9.822 5.87-18.921 9.812-27.026zm74.1 166.177c-10.207 21.002-23.364 32.568-37.05 32.568s-26.843-11.566-37.05-32.568c-4.173-8.578-7.614-18.275-10.255-28.761 14.313-5.311 30.477-8.135 47.306-8.135 16.838 0 33.002 2.824 47.315 8.135-2.651 10.486-6.092 20.182-10.266 28.761zm11.393-33.456c-14.419-5.272-30.92-8.26-48.443-8.26s-34.014 2.988-48.433 8.26c-3.296-14.622-5.099-30.631-5.253-47.229h107.382c-.154 16.598-1.957 32.608-5.253 47.229zm-102.129-52.047c.154-17.262 2.111-33.889 5.658-48.973 14.323 5.186 30.67 8.116 48.029 8.116s33.715-2.93 48.038-8.116c3.547 15.084 5.504 31.711 5.658 48.973z" fill="#83d5ef"/></g><g><path d="m156.116 47.157c-2.471 0-4.879.239-7.198.719-6.505 1.286-12.38 4.311-17.145 8.56-7.501 6.694-12.216 16.426-12.216 27.268 0 15.103 20.435 51.662 30.747 69.159 2.61 4.425 9.001 4.425 11.611 0 2.307-3.92 5.143-8.812 8.119-14.195.252-.429.492-.87.731-1.311 10.173-18.456 21.898-42.207 21.898-53.653-.001-20.184-16.364-36.547-36.547-36.547zm0 51.119c-.996 0-1.967-.101-2.899-.277-6.669-1.361-11.674-7.249-11.674-14.296 0-5.408 2.95-10.136 7.337-12.644 2.131-1.223 4.601-1.916 7.236-1.916 8.043 0 14.561 6.517 14.561 14.561-.001 8.042-6.518 14.572-14.561 14.572z" fill="#c0405c"/><path d="m192.66 83.7c0 4.74-2.01 11.59-5.09 19.3-4.35 10.91-10.85 23.54-16.81 34.36-.23.44-.47.88-.73 1.31-7.42-12.52-13.13-26.19-16.81-40.67.93.18 1.9.28 2.9.28 5.58 0 10.43-3.15 12.87-7.77 1.08-2.03 1.69-4.35 1.69-6.81 0-6.65-4.46-12.26-10.55-14-1.27-.36-2.62-.56-4.01-.56-2.64 0-5.11.7-7.24 1.92-.28-3.73-.42-7.5-.42-11.3 0-3.99.15-7.96.46-11.88 2.32-.48 4.72-.72 7.2-.72 2.65 0 5.23.28 7.72.82 16.47 3.54 28.82 18.19 28.82 35.72z" fill="#e9465e"/><path d="m192.66 83.7c0 4.74-2.01 11.59-5.09 19.3-7.35-2.3-13.78-6.7-18.58-12.49 1.08-2.03 1.69-4.35 1.69-6.81 0-6.65-4.46-12.26-10.55-14-.17-1.46-.25-2.95-.25-4.45 0-6.19 1.42-12.05 3.96-17.27 16.47 3.54 28.82 18.19 28.82 35.72z" fill="#ea7589"/><path d="m156.116 98.276c-.996 0-1.967-.101-2.899-.277-6.669-1.361-11.674-7.249-11.674-14.296 0-5.408 2.95-10.136 7.337-12.644 2.131-1.223 4.601-1.916 7.236-1.916 8.043 0 14.561 6.517 14.561 14.561-.001 8.042-6.518 14.572-14.561 14.572z" fill="#fff"/></g><g><path d="m332.88 131.63c-2.471 0-4.879.239-7.198.719-6.505 1.286-12.38 4.311-17.145 8.56-7.501 6.694-12.216 16.426-12.216 27.268 0 15.103 20.435 51.662 30.747 69.159 2.61 4.425 9.001 4.425 11.611 0 2.307-3.92 5.143-8.812 8.119-14.195.252-.429.492-.87.731-1.311 10.173-18.456 21.898-42.207 21.898-53.653-.001-20.184-16.364-36.547-36.547-36.547zm0 51.119c-.996 0-1.967-.101-2.9-.277-6.669-1.361-11.674-7.249-11.674-14.296 0-5.408 2.95-10.136 7.337-12.644 2.13-1.223 4.601-1.916 7.236-1.916 8.043 0 14.561 6.517 14.561 14.561 0 8.042-6.517 14.572-14.56 14.572z" fill="#c0405c"/><path d="m369.424 168.173c0 4.74-2.01 11.59-5.09 19.3-4.35 10.91-10.85 23.54-16.81 34.36-.23.44-.47.88-.73 1.31-7.42-12.52-13.13-26.19-16.81-40.67.93.18 1.9.28 2.9.28 5.58 0 10.43-3.15 12.87-7.77 1.08-2.03 1.69-4.35 1.69-6.81 0-6.65-4.46-12.26-10.55-14-1.27-.36-2.62-.56-4.01-.56-2.64 0-5.11.7-7.24 1.92-.28-3.73-.42-7.5-.42-11.3 0-3.99.15-7.96.46-11.88 2.32-.48 4.72-.72 7.2-.72 2.65 0 5.23.28 7.72.82 16.47 3.54 28.82 18.19 28.82 35.72z" fill="#e9465e"/><path d="m369.424 168.173c0 4.74-2.01 11.59-5.09 19.3-7.35-2.3-13.78-6.7-18.58-12.49 1.08-2.03 1.69-4.35 1.69-6.81 0-6.65-4.46-12.26-10.55-14-.17-1.46-.25-2.95-.25-4.45 0-6.19 1.42-12.05 3.96-17.27 16.47 3.54 28.82 18.19 28.82 35.72z" fill="#ea7589"/><path d="m332.88 182.749c-.996 0-1.967-.101-2.9-.277-6.669-1.361-11.674-7.249-11.674-14.296 0-5.408 2.95-10.136 7.337-12.644 2.13-1.223 4.601-1.916 7.236-1.916 8.043 0 14.561 6.517 14.561 14.561 0 8.042-6.517 14.572-14.56 14.572z" fill="#fff"/></g><g><g><path d="m180.08 171.879c-1.111 0-2.24-.248-3.305-.772l-8.973-4.415c-3.717-1.829-5.248-6.324-3.419-10.041 1.828-3.716 6.323-5.249 10.04-3.418l8.973 4.415c3.717 1.829 5.248 6.324 3.419 10.041-1.304 2.651-3.966 4.19-6.735 4.19z" fill="#fff"/></g><g><path d="m267.455 214.864c-1.111 0-2.24-.248-3.305-.772l-14.562-7.164c-3.717-1.828-5.248-6.323-3.419-10.04 1.828-3.717 6.323-5.249 10.04-3.419l14.562 7.164c3.717 1.828 5.248 6.323 3.419 10.04-1.304 2.652-3.966 4.191-6.735 4.191zm-43.687-21.493c-1.111 0-2.24-.248-3.305-.772l-14.562-7.164c-3.717-1.828-5.248-6.323-3.419-10.04 1.828-3.717 6.322-5.249 10.04-3.419l14.562 7.164c3.717 1.828 5.248 6.323 3.419 10.04-1.305 2.652-3.967 4.191-6.735 4.191z" fill="#fff"/></g><g><path d="m305.553 233.606c-1.111 0-2.24-.248-3.305-.771l-8.973-4.414c-3.717-1.829-5.248-6.324-3.419-10.041 1.828-3.717 6.323-5.247 10.04-3.419l8.973 4.414c3.717 1.829 5.248 6.324 3.419 10.041-1.305 2.651-3.967 4.19-6.735 4.19z" fill="#fff"/></g></g></g><g><g><g><path d="m356.089 454.937-57.67-34.555c-7.149-4.283-15.329-6.542-23.666-6.542h-37.499c-8.345 0-16.525 2.26-23.674 6.542l-57.662 34.555c-14.967 8.967-33.728-3.086-31.791-20.423l2.126-19.037 8.889-79.446c4.48-40.105 38.397-70.44 78.761-70.44h84.202c40.357 0 74.274 30.335 78.754 70.44l8.889 79.454 2.126 19.029c1.935 17.337-16.818 29.391-31.785 20.423z" fill="#334353"/><path d="m356.089 454.937-57.67-34.555c-7.149-4.283-15.329-6.542-23.666-6.542h-18.753v-148.248h42.105c40.357 0 74.274 30.335 78.754 70.44l8.889 79.454 2.126 19.029c1.935 17.336-16.818 29.39-31.785 20.422z" fill="#3e4e60"/></g><g><path d="m385.747 415.486c-5.22 10.172-18.494 15.187-29.658 8.495l-53.387-31.98c-9.951-5.968-21.344-9.117-32.948-9.117h-27.508c-11.605 0-22.997 3.149-32.948 9.117l-53.379 31.98c-11.172 6.692-24.446 1.677-29.665-8.503l8.889-79.446c4.48-40.105 38.397-70.44 78.761-70.44h84.202c40.357 0 74.274 30.335 78.754 70.44z" fill="#3e4e60"/><path d="m385.747 415.486c-5.22 10.172-18.494 15.187-29.658 8.495l-53.387-31.98c-9.951-5.968-21.344-9.117-32.948-9.117h-13.754v-117.292h42.105c40.357 0 74.274 30.335 78.754 70.44z" fill="#3f5d77"/></g></g><g><path d="m226.245 328.1v8.111c0 3.738-3.028 6.765-6.765 6.765h-9.314c-3.738 0-6.765 3.027-6.765 6.758v11.564c0 3.73-3.028 6.758-6.758 6.758h-8.118c-3.73 0-6.758-3.028-6.758-6.758v-11.564c0-3.73-3.028-6.758-6.765-6.758h-9.314c-3.738 0-6.765-3.028-6.765-6.765v-8.111c0-.067 0-.142.007-.209.105-3.641 3.087-6.556 6.758-6.556h9.314c3.738 0 6.765-3.027 6.765-6.758v-7.079c0-3.73 3.027-6.758 6.758-6.758h8.118c3.73 0 6.758 3.027 6.758 6.758v7.079c0 3.73 3.028 6.758 6.765 6.758h9.314c3.67 0 6.653 2.915 6.758 6.556.007.067.007.142.007.209z" fill="#2d2c33"/><path d="m226.237 327.891c-.105 3.633-3.087 6.548-6.758 6.548h-9.314c-3.738 0-6.765 3.028-6.765 6.765v11.557c0 3.738-3.028 6.765-6.758 6.765h-8.118c-3.73 0-6.758-3.028-6.758-6.765v-11.557c0-3.738-3.028-6.765-6.765-6.765h-9.314c-3.67 0-6.653-2.915-6.758-6.548.105-3.641 3.087-6.556 6.758-6.556h9.314c3.738 0 6.765-3.027 6.765-6.758v-7.079c0-3.73 3.027-6.758 6.758-6.758h8.118c3.73 0 6.758 3.027 6.758 6.758v7.079c0 3.73 3.028 6.758 6.765 6.758h9.314c3.671 0 6.653 2.915 6.758 6.556z" fill="#334353"/><path d="m212.869 323.708h-12.624v-8.285c0-1.904-1.543-3.447-3.447-3.447-1.904 0-3.447 1.543-3.447 3.447v8.285h-12.624c-1.904 0-3.447 1.543-3.447 3.447s1.543 3.447 3.447 3.447h12.624v10.354c0 1.904 1.543 3.447 3.447 3.447 1.904 0 3.447-1.543 3.447-3.447v-10.354h12.624c1.904 0 3.447-1.543 3.447-3.447s-1.543-3.447-3.447-3.447z" fill="#3f5d77"/></g><g><g><path d="m330.517 306.077c0 7-5.68 12.68-12.68 12.68s-12.68-5.68-12.68-12.68c0-1.088.137-2.142.403-3.153 1.397-5.475 6.366-9.519 12.278-9.519s10.881 4.044 12.278 9.519c.263 1.011.401 2.065.401 3.153z" fill="#53b976"/><path d="m330.114 302.924c-1.397 5.475-6.366 9.527-12.278 9.527s-10.881-4.053-12.278-9.527c1.397-5.475 6.366-9.519 12.278-9.519s10.881 4.044 12.278 9.519z" fill="#78c795"/></g><g><path d="m330.517 362.712c0 7-5.68 12.68-12.68 12.68s-12.68-5.68-12.68-12.68c0-1.088.137-2.142.403-3.153 1.397-5.475 6.366-9.519 12.278-9.519s10.881 4.044 12.278 9.519c.263 1.011.401 2.065.401 3.153z" fill="#7d73ff"/><path d="m330.114 359.559c-1.397 5.475-6.366 9.527-12.278 9.527s-10.881-4.053-12.278-9.527c1.397-5.475 6.366-9.519 12.278-9.519s10.881 4.044 12.278 9.519z" fill="#b5b3ff"/></g><g><g><path d="m358.831 331.824c0 7-5.68 12.68-12.68 12.68s-12.68-5.68-12.68-12.68c0-1.088.137-2.142.403-3.153 1.397-5.475 6.366-9.519 12.278-9.519s10.881 4.044 12.278 9.519c.264 1.011.401 2.065.401 3.153z" fill="#e9465e"/><path d="m358.429 328.671c-1.397 5.475-6.366 9.527-12.278 9.527s-10.881-4.053-12.278-9.527c1.397-5.475 6.366-9.519 12.278-9.519s10.881 4.045 12.278 9.519z" fill="#ee6781"/></g><g><path d="m302.195 331.824c0 7-5.68 12.68-12.68 12.68s-12.68-5.68-12.68-12.68c0-1.088.137-2.142.403-3.153 1.397-5.475 6.366-9.519 12.278-9.519s10.881 4.044 12.278 9.519c.263 1.011.401 2.065.401 3.153z" fill="#ea7589"/><path d="m301.792 328.671c-1.397 5.475-6.366 9.527-12.278 9.527s-10.881-4.053-12.278-9.527c1.397-5.475 6.366-9.519 12.278-9.519s10.881 4.045 12.278 9.519z" fill="#ff9fb4"/></g></g></g><g><path d="m294.869 289.014c0 6.645-5.393 12.038-12.046 12.038h-53.647c-3.322 0-6.338-1.346-8.519-3.527s-3.527-5.188-3.527-8.511c0-6.653 5.393-12.046 12.046-12.046h53.647c3.322 0 6.338 1.346 8.519 3.527s3.527 5.197 3.527 8.519z" fill="#334353"/><path d="m294.869 289.014c0 6.645-5.393 12.038-12.046 12.038h-26.823v-24.083h26.823c3.322 0 6.338 1.346 8.519 3.527 2.181 2.18 3.527 5.196 3.527 8.518z" fill="#3e4e60"/></g></g></g></svg>