<svg id="Capa_1" enable-background="new 0 0 512 512" height="512" viewBox="0 0 512 512" width="512" xmlns="http://www.w3.org/2000/svg"><g><g><g><g><g><ellipse cx="69.68" cy="277.771" fill="#ffcbbe" rx="53.031" ry="53.034" transform="matrix(.004 -1 1 .004 -208.357 346.38)"/><path d="m69.68 340.802c-34.757 0-63.034-28.275-63.034-63.031s28.277-63.031 63.034-63.031 63.034 28.275 63.034 63.031-28.277 63.031-63.034 63.031zm0-106.062c-23.729 0-43.034 19.304-43.034 43.031s19.305 43.031 43.034 43.031 43.034-19.304 43.034-43.031-19.305-43.031-43.034-43.031z"/></g><path d="m10 378.813c0-9.761 7.919-17.68 17.681-17.68h83.999c9.762 0 17.681 7.919 17.681 17.68v65.868h-119.361z" fill="#f5737f"/></g></g><g><g><g><ellipse cx="442.32" cy="277.771" fill="#ffcbbe" rx="53.031" ry="53.034" transform="matrix(.004 -1 1 .004 162.85 719.019)"/><path d="m442.319 340.802c-34.757 0-63.034-28.275-63.034-63.031s28.277-63.031 63.034-63.031 63.034 28.275 63.034 63.031-28.277 63.031-63.034 63.031zm0-106.062c-23.729 0-43.034 19.304-43.034 43.031s19.305 43.031 43.034 43.031 43.034-19.304 43.034-43.031-19.304-43.031-43.034-43.031z"/></g><path d="m382.639 378.813c0-9.761 7.919-17.68 17.681-17.68h83.999c9.762 0 17.681 7.919 17.681 17.68v65.868h-119.361z" fill="#8481e2"/></g></g></g><g><g><g><g><path d="m312.223 352.32h40.556c17.223 0 31.185 13.961 29.861 31.183v61.178h-253.28v-61.181c-1.325-17.22 12.636-31.18 29.857-31.18h41.086" fill="#9bc6ff"/></g><g><path d="m337.41 454.68c-4.168 0-8.017-2.703-9.415-6.631-1.372-3.857-.212-8.297 2.91-10.958 3.103-2.646 7.612-3.134 11.209-1.221 3.741 1.989 5.846 6.264 5.155 10.445-.786 4.756-5.035 8.365-9.859 8.365z"/></g><g><g><g><path d="m166.838 161.878-.004 40.949h-1.096c-9.575 0-17.729 7.445-18.07 17.014-.357 10.046 7.681 18.302 17.646 18.302h3.121l1.539 7.058c0 50.505 60.711 71.947 68.173 73.015l-8.861 34.104h52.822l-8.861-34.105c7.461-1.068 68.175-22.267 68.175-73.014l1.538-7.058h3.723c9.966 0 18.004-8.256 17.647-18.302-.34-9.568-8.495-17.014-18.07-17.014h-1.698l-.004-40.949" fill="#ffcbbe"/></g></g><g><g><g><path d="m213.196 240.776c-5.523 0-10-4.478-10-10v-14.645c0-5.523 4.477-10 10-10s10 4.477 10 10v14.645c0 5.522-4.477 10-10 10z"/></g></g><g><g><path d="m298.804 240.776c-5.522 0-10-4.478-10-10v-14.645c0-5.523 4.478-10 10-10s10 4.477 10 10v14.645c0 5.522-4.478 10-10 10z"/></g></g></g><g><path d="m256.021 289.938c-8.667 0-16.749-4.663-21.091-12.17-2.766-4.78-1.132-10.898 3.648-13.664s10.898-1.132 13.664 3.648c.791 1.368 2.205 2.185 3.78 2.185s2.988-.817 3.779-2.185c2.766-4.779 8.882-6.414 13.664-3.648 4.78 2.766 6.414 8.884 3.648 13.664-4.344 7.507-12.426 12.17-21.092 12.17z"/></g><path d="m344.563 202.827s17.35-25.563 17.359-72.94c.006-32.657-21.313-62.593-21.359-62.568l-2.999 2.4c-20.962 16.773-28.88 20.301-74.603 7.765-41.798-17.197-57.361 19.195-87.803 18.146-38.572-1.329-8.324 107.197-8.324 107.197s12.704-39.439 21.533-39.439c0 0 70.621 2.61 83.137 1.829 14.932-.932 33.704-5.579 33.745-20.539z" fill="#ffcb7c"/></g></g><g><g><path d="m291.401 397.992 21.937-53.995-28.022-10.851-29.336 21.625z" fill="#e5ecec"/></g><g><g><path d="m220.599 397.992-21.937-53.995 28.022-10.851 29.336 21.625z" fill="#e5ecec"/></g><path d="m484.319 351.134h-83.999c-6.197 0-11.925 2.047-16.543 5.501-.42-.501-.854-.993-1.301-1.477-7.556-8.158-18.38-12.838-29.696-12.838h-29.585c-.133-.78-.357-1.548-.676-2.287-1.063-2.461-3.069-4.393-5.569-5.36l-28.022-10.852c-.113-.044-.228-.081-.342-.12 8.058-3.316 18.07-8.435 27.448-15.29 22.344-16.333 34.52-37.261 35.344-60.661 5.771-.977 11.054-3.755 15.209-8.061 5.259-5.449 8.007-12.625 7.737-20.203-.366-10.305-6.338-19.069-14.993-23.521 5.535-12.775 12.585-35.12 12.591-66.076.003-14.993-3.884-31.033-11.554-47.675-2.957-6.416-5.907-11.617-7.862-14.851-4.332-7.166-5.178-7.664-6.862-8.657-3.576-2.11-8.085-1.79-11.327.805l-3 2.4c-17.929 14.347-22.247 17.805-65.138 6.085-29.219-11.772-48.421-.809-63.87 8.012-9.353 5.339-17.404 9.963-26.807 9.628-8.557-.278-15.849 3.021-21.02 9.592-9.173 11.658-11.258 33.479-6.372 66.712 1.915 13.024 4.513 25.042 6.442 33.148-9.661 4.097-16.485 13.361-16.878 24.396-.27 7.58 2.479 14.756 7.737 20.205 4.01 4.154 9.069 6.886 14.602 7.95 1.441 43.323 41.082 67.026 63.225 76.122-.056.021-.112.037-.168.059l-28.022 10.852c-2.499.968-4.506 2.899-5.569 5.36-.319.739-.543 1.507-.676 2.287h-29.588c-11.316 0-22.14 4.68-29.695 12.838-.448.483-.881.976-1.301 1.477-4.618-3.453-10.346-5.5-16.543-5.5h-83.995c-15.264 0-27.681 12.417-27.681 27.68v65.867c0 5.522 4.477 10 10 10h281.459c5.522 0 10-4.478 10-10s-4.478-10-10-10h-152.099v-55.154c.374-4.009 2.035-7.754 4.837-10.78 3.782-4.084 9.257-6.427 15.02-6.427h36.094l16.022 39.437c1.328 3.269 4.279 5.596 7.767 6.124.501.075 1.001.112 1.499.112 2.97 0 5.818-1.324 7.733-3.661l27.668-33.759 27.666 33.759c1.915 2.337 4.764 3.661 7.733 3.661.497 0 .998-.037 1.498-.112 3.488-.528 6.439-2.855 7.768-6.124l16.023-39.437h36.092c5.764 0 11.239 2.343 15.022 6.428 2.802 3.026 4.465 6.772 4.839 10.781v65.152c0 5.522 4.478 10 10 10h119.359c5.522 0 10-4.478 10-10v-65.867c0-15.263-12.417-27.68-27.681-27.68zm-464.319 27.68c0-4.234 3.445-7.68 7.681-7.68h83.999c4.188 0 7.601 3.369 7.677 7.538-.112 1.71-.113 3.44.004 5.184v50.825h-99.361zm150.201-271.219c1.008-1.279 2.122-2.053 4.613-1.971 15.054.523 26.93-6.264 37.411-12.247 14.762-8.428 26.422-15.085 46.932-6.646.378.155.766.288 1.16.396 43.947 12.05 57.185 10.167 77.602-5.031 5.733 10.393 14.007 28.702 14.003 47.788-.004 23.654-4.635 41.504-8.859 52.868l-29.528-43.676c-1.895-2.803-5.026-4.4-8.285-4.4-.97 0-1.952.142-2.915.436-4.198 1.28-7.072 5.148-7.084 9.538-.019 6.691-13.139 9.885-24.368 10.586-9.86.617-62.64-1.121-82.145-1.842-.123-.005-.246-.007-.369-.007-6.906 0-12.618 4.832-18.721 16.251-.63-3.477-1.235-7.105-1.775-10.798-5.532-37.779.384-48.775 2.328-51.245zm9.774 137.605c0-.716-.077-1.43-.23-2.13l-1.539-7.059c-1.001-4.594-5.068-7.87-9.771-7.87h-3.121c-2.097 0-4.055-.831-5.512-2.342-1.456-1.508-2.216-3.498-2.141-5.605.145-4.063 3.767-7.369 8.076-7.369.203 0 .404-.008.604-.02.098.005.194.016.293.018 4.433.075 8.363-2.73 9.718-6.932 4.44-13.784 10.769-27.976 14.337-32.414 13.266.478 69.855 2.444 81.438 1.719 17.448-1.09 27.917-5.665 34.158-11.132l29.992 44.361c1.857 2.748 4.958 4.396 8.275 4.399h.009c.281 0 .56-.016.837-.039.284.024.571.039.861.039 4.309 0 7.932 3.306 8.075 7.369.075 2.107-.685 4.097-2.141 5.605-1.457 1.51-3.414 2.342-5.512 2.342h-3.723c-4.702 0-8.77 3.276-9.771 7.871l-1.538 7.059c-.152.699-.229 1.413-.229 2.129 0 42.373-52.205 61.845-59.591 63.114-2.818.403-5.331 1.989-6.909 4.358-1.577 2.37-2.069 5.301-1.354 8.056l3.495 13.449-11.061 8.158-11.57-8.529 3.397-13.075c.716-2.756.25-5.682-1.328-8.052s-4.064-3.951-6.883-4.354c-7.433-1.292-59.641-20.838-59.641-63.124zm43.555 133.44-11.777-28.988 13.419-5.197 16.441 12.12zm64.94 0-18.083-22.065 16.441-12.119 13.419 5.196zm203.53 56.041h-99.36v-50.821c.116-1.744.115-3.475.004-5.185.075-4.17 3.489-7.54 7.677-7.54h83.999c4.235 0 7.681 3.445 7.681 7.68v55.866z"/></g></g></g></g></g></svg>