<svg width="192.756" height="192.756" xmlns="http://www.w3.org/2000/svg">

 <g>
  <title>Layer 1</title>
  <g stroke="null" id="svg_1" clip-rule="evenodd" fill-rule="evenodd">
   <path stroke="null" id="svg_2" d="m57,3l77.756,0l0,185.75601l-77.756,0l0,-185.75601z" fill="#fff"/>
   <path stroke="null" id="svg_3" fill="#cc2229" d="m124.832,189.596c1.013,-1.912 2.812,-8.1 -0.562,-14.625c1.013,-3.6 -1.688,-4.389 -2.812,-12.375c1.125,-2.363 1.912,-5.176 1.8,-8.326c-0.225,-2.812 -2.25,-4.162 -3.375,-6.299c-1.8,-7.201 -2.812,-14.85 -5.513,-21.6c-0.899,-3.264 -3.149,-6.076 -4.725,-9.113c-1.575,-8.1 -2.362,-16.762 -4.837,-24.412a6.475,6.475 0 0 0 1.237,-1.238c-1.688,-6.862 -4.163,-16.875 -7.763,-19.913c0.899,-3.375 2.25,-7.312 2.7,-10.35c1.574,-2.137 3.374,-4.5 6.862,-6.075c1.8,4.95 2.588,11.138 3.6,16.087c2.25,4.95 5.4,9.337 6.3,13.838c-5.737,2.25 -9.675,7.538 -9.675,13.724c0,7.988 6.413,14.4 14.287,14.4c5.851,0 10.913,-3.713 13.163,-8.775l0,71.775c0.001,6.413 -4.499,11.814 -10.687,13.277z"/>
   <path stroke="null" id="svg_4" fill="#33348e" d="m118.099,189.809c-2.25,-5.4 -0.9,-9.9 -0.45,-16.088c-0.562,-2.812 -1.013,-5.625 -1.463,-8.324c-3.149,-4.838 -4.274,-9.225 -5.062,-14.4c-5.962,-5.287 -12.938,-9.9 -17.662,-15.637c-8.438,-7.988 -14.625,-16.201 -18.9,-25.426c-1.462,-0.111 -2.924,-0.225 -4.5,-0.225c-2.7,-7.312 -8.887,-16.2 -8.325,-21.937c0.225,-5.063 1.8,-9.675 3.712,-14.85c-1.688,-0.338 -3.262,0.225 -5.062,-0.788c-2.812,-1.8 -2.362,-4.95 -2.475,-7.763c1.237,-5.625 4.275,-10.35 6.3,-15.412c2.025,-4.388 3.938,-8.775 5.85,-13.05c2.7,-3.038 4.388,-5.175 7.762,-6.638c2.925,-0.338 5.851,0.112 9,-0.562c1.35,-0.45 3.038,-0.788 3.601,-1.688c1.35,-1.913 1.012,-3.938 1.575,-6.3c-1.8,-1.012 -1.575,-6.187 0.45,-7.987c0,-3.6 1.462,-8.438 4.5,-9.675l-26.1,-0.225a13.588,13.588 0 0 0 -13.612,13.613l0,159.861a13.588,13.588 0 0 0 13.612,13.613l47.249,-0.112zm-52.201,-33.299l5.963,0l4.387,14.061l0,-14.061l5.4,0l0,23.512l-6.075,0l-4.5,-14.062l0,14.062l-5.175,0l0,-23.512zm16.65,0l6.975,0c9.112,0 6.75,11.023 3.375,11.248c5.062,-0.561 5.737,12.264 -2.475,12.264l-7.875,0l0,-23.512zm5.4,3.824l0,5.287l1.351,0c2.25,0 2.25,-5.287 0,-5.287l-1.351,0zm0,9.338l0,6.525l1.351,0c2.587,0 2.25,-6.525 0,-6.525l-1.351,0zm12.825,-13.162l7.2,0l4.162,23.512l-5.512,0l-0.451,-4.162l-3.824,0l-0.676,4.162l-5.399,0l4.5,-23.512zm2.138,15.187l2.812,0l-1.463,-11.701l-1.349,11.701z"/>
   <path stroke="null" id="svg_5" fill="#cc2229" d="m106.238,3.421c3.825,3.6 6.188,8.775 2.588,15.075c2.25,1.462 -1.688,4.05 -2.588,6.075c-1.124,3.15 -4.949,4.95 -4.499,6.075c4.949,3.038 8.887,6.075 13.837,10.012c2.588,3.263 3.6,16.312 5.062,26.212c2.138,6.188 5.175,11.475 6.3,18.45c3.938,1.462 6.975,4.5 8.55,8.1l0,-76.95a13.587,13.587 0 0 0 -13.612,-13.612l-15.638,0.563z"/>
  </g>
 </g>
</svg>