<svg width="100" height="84" xmlns="http://www.w3.org/2000/svg">
 <defs>
  <radialGradient id="SVGID_1_" cx="85.227" cy="71.662" r="47.776" gradientTransform="matrix(1.1237602233886719,0,0,-1.1654411554336548,-67.19240951538086,105.35184478759766)" gradientUnits="userSpaceOnUse">
   <stop offset="0" stop-color="#00aeff" id="stop9"/>
   <stop offset="0.131" stop-color="#00a5f7" id="stop11"/>
   <stop offset="0.345" stop-color="#008de0" id="stop13"/>
   <stop offset="0.616" stop-color="#0065ba" id="stop15"/>
   <stop offset="0.928" stop-color="#002f87" id="stop17"/>
   <stop offset="1" stop-color="#00217a" id="stop19"/>
  </radialGradient>
  <linearGradient id="SVGID_3_" x1="0" y1="0.5" x2="1.00166" y2="0.5">
   <stop offset="0" stop-color="#FFF" id="stop26"/>
   <stop offset="1" stop-color="#FFF" stop-opacity="0" id="stop28"/>
  </linearGradient>
  <radialGradient id="SVGID_4_" cx="83.729" cy="73.999" r="8.286" gradientTransform="matrix(1.1237602233886719,0,0,-1.1654411554336548,-67.19240951538086,105.35184478759766)" gradientUnits="userSpaceOnUse">
   <stop offset="0" stop-color="#FFF" id="stop33"/>
   <stop offset="0.679" stop-color="#7a7a7a" id="stop35"/>
   <stop offset="1" stop-color="#404040" id="stop37"/>
  </radialGradient>
 </defs>
 <g>
  <title>Layer 1</title>
  <g stroke="null" id="Symbol_2_">
   <path stroke="null" fill="#fff" class="st0" d="m82.38008,22.13934l-0.11238,-1.28199l-1.12376,-0.81581c-4.71979,-3.37978 -13.70987,-7.34228 -29.77965,-7.34228c-6.06831,0 -11.57473,0.58272 -16.4069,1.74816c-1.68564,-1.51507 -3.93316,-2.44743 -6.29306,-2.44743c-5.28167,0 -9.66434,4.42868 -9.66434,10.02279c0,1.74816 0.4495,3.37978 1.23614,4.89485c0.22475,8.62426 2.8094,17.59816 7.86632,26.6886c8.31583,14.56801 17.19353,18.88015 21.46382,20.8614c0.33713,0.11654 0.56188,0.23309 0.78663,0.34963l1.12376,0.58272l1.12376,-0.58272c0.22475,-0.11654 0.56188,-0.23309 0.78663,-0.34963c4.38266,-1.98125 13.14799,-6.29338 21.23907,-20.8614c8.87771,-15.96654 8.09107,-27.62096 7.75395,-31.46691z" id="path7"/>
   <path stroke="null" fill="url(#SVGID_1_)" class="st1" d="m48.89202,34.7261s1.46089,0.11654 2.69702,1.74816l-0.67426,0.11654l-0.33713,-0.11654s-1.01138,-1.28199 -1.68564,-1.74816zm-2.24752,7.22574l-0.67426,-1.74816l-0.22475,0l-1.12376,1.39853c0.78663,0.69926 2.02277,0.34963 2.02277,0.34963zm10.33859,-10.25588l-0.56188,0.23309l0.67426,1.28199l2.24752,0.81581c-0.89901,-1.98125 -2.3599,-2.33088 -2.3599,-2.33088zm-6.40543,2.44743c0.67426,0.81581 1.34851,1.98125 1.34851,1.98125c1.12376,-1.16544 3.48366,-1.63162 6.51781,-1.51507c-4.27029,-0.93235 -7.86632,-0.46618 -7.86632,-0.46618zm-4.15791,-1.74816s1.23614,0 2.92178,0.34963c-1.12376,-0.81581 -2.92178,-1.28199 -2.92178,-1.28199l0,0.93235zm10.33859,6.40993l-1.91039,1.74816l1.46089,0.46618l1.46089,-1.63162l-0.78663,-0.34963l-0.22475,-0.23309zm-12.69849,-9.20699s0.78663,0.46618 0.89901,0.46618s1.68564,0.58272 2.3599,0.81581c0.56188,0.23309 0.89901,0 1.01138,0s2.02277,-1.16544 2.02277,-1.16544c-1.68564,-0.69926 -3.2589,-1.16544 -3.2589,-1.16544c-0.11238,0 -3.03415,1.0489 -3.03415,1.0489zm11.46235,1.0489c-0.11238,-0.23309 -0.33713,-0.23309 -1.68564,-0.46618c-1.23614,-0.11654 -2.3599,-0.23309 -2.58465,-0.23309c-0.22475,0 -0.33713,0.11654 -0.33713,0.11654s-0.67426,0.46618 -1.23614,0.81581c-0.56188,0.34963 -0.67426,0.46618 -0.78663,0.69926c-0.11238,0.11654 0.22475,0.58272 0.22475,0.58272l0.89901,1.16544c0.11238,0 0.4495,0.23309 0.4495,0.23309s1.79802,-0.11654 2.92178,-0.23309l2.92178,0c0.11238,0 0,-0.46618 -0.22475,-1.0489c-0.22475,-0.46618 -0.56188,-1.63162 -0.56188,-1.63162zm-10.67572,1.28199s0.11238,0 0.33713,0.11654c0.22475,0 0.33713,-0.23309 0.33713,-0.46618c0,-0.34963 -0.33713,-0.46618 -0.33713,-0.46618l-0.22475,0l-0.33713,0.11654l-0.11238,0.81581l0.11238,0l0.22475,-0.11654c-0.11238,-0.23309 -0.11238,-0.34963 -0.11238,-0.58272c0,-0.11654 0.22475,-0.34963 0.33713,-0.34963c0,0 0.22475,0 0.11238,0.46618c0,0.46618 -0.33713,0.46618 -0.33713,0.46618zm18.99155,9.20699l-0.89901,1.28199l0,0.11654l1.23614,0c0.22475,-0.81581 -0.33713,-1.39853 -0.33713,-1.39853zm-22.4752,-6.06029l-0.22475,0l-0.56188,-0.11654c-0.56188,-0.11654 -0.33713,-1.16544 -0.33713,-1.16544l-0.67426,0.23309c-0.22475,-0.46618 -1.23614,-1.74816 -1.23614,-1.74816l-0.22475,0.93235c0.11238,0.11654 0.67426,1.0489 0.78663,1.28199l-0.33713,0.34963s-0.11238,0.23309 -0.11238,0.34963c0,0.11654 -0.11238,0.23309 -0.11238,0.23309l-0.4495,0.23309l-0.11238,0l-1.57326,-1.28199l0,0.93235l0.11238,0c0.11238,0.23309 0.33713,0.69926 0.89901,0.93235c0.4495,0.23309 1.01138,0.23309 1.23614,0.11654c0.22475,0.11654 0.33713,0.11654 0.4495,0.23309c0.4495,0.23309 0.56188,0.11654 0.56188,0.11654l0.67426,-0.23309l0.11238,0l0.11238,-0.11654l0.22475,-0.46618s1.12376,0.11654 1.57326,0.11654c0.4495,-0.69926 1.91039,-1.74816 2.92178,-1.86471c1.01138,0 2.69702,0.23309 4.04554,1.63162c1.23614,1.39853 0.89901,3.26324 0.89901,3.26324l2.47227,0.81581l-1.12376,-0.81581c-0.89901,-2.33088 -3.03415,-4.42868 -3.03415,-4.42868s-0.56188,-0.11654 -0.89901,-0.11654c-0.33713,-0.11654 -0.56188,-0.34963 -0.56188,-0.34963s-0.11238,-0.11654 -0.33713,-0.46618l-0.22475,-0.46618s-0.22475,-0.23309 -0.56188,-0.46618s-1.57326,-0.34963 -2.24752,-0.46618c-0.67426,-0.11654 -0.67426,0 -0.67426,0c1.91039,0.46618 2.47227,0.58272 2.58465,0.69926c0,0 0.11238,0.23309 0.22475,0.34963c-1.57326,-0.34963 -3.03415,-0.11654 -3.37128,0c0.22475,0.34963 0.22475,0.81581 0,1.16544c-0.22475,0.23309 -0.89901,0.58272 -0.89901,0.58272zm21.35144,8.39118l0.33713,1.51507s0.33713,-0.34963 0.67426,-0.81581s0.4495,-0.93235 0.4495,-0.93235l-1.34851,0.11654l-0.11238,0.11654zm-27.08262,-10.60551l-0.11238,1.28199l0.67426,0l0.11238,-0.81581l0,0.46618l0.11238,0l0,-0.69926l-0.11238,0l0,-0.46618l1.01138,0.58272l0.11238,0.23309l0.22475,0.23309l0.22475,0l0.11238,-0.11654l0,-0.11654c-0.67426,0 -0.67426,-0.34963 -0.67426,-0.34963s0.11238,-0.81581 0.22475,-1.0489c0.11238,-0.23309 0.56188,-0.11654 0.56188,-0.11654l-0.11238,-0.11654l-0.22475,0c-0.22475,-0.11654 -0.89901,-0.58272 -1.12376,-0.69926l0,-0.11654l0.11238,-0.11654l0,-0.46618l0.11238,0c0,-0.11654 0.11238,-0.11654 0.11238,-0.23309c0.22475,0 1.91039,-0.34963 1.91039,-0.34963l-1.57326,-0.34963l0,-0.11654c-0.4495,-0.11654 -0.78663,-0.23309 -1.01138,-0.34963c-0.56188,0.69926 -0.78663,1.63162 -0.78663,1.63162s-0.11238,1.63162 -0.11238,1.86471c-0.11238,0.23309 0.22475,0.34963 0.22475,0.34963zm26.40837,9.20699l0.22475,0.34963l0.11238,-0.11654l0.89901,-1.16544l0,-0.11654c-0.4495,0 -1.23614,1.0489 -1.23614,1.0489zm-2.69702,-2.09779l-0.67426,-0.23309l-1.57326,1.86471l1.12376,0.34963c0.22475,-0.93235 1.12376,-1.98125 1.12376,-1.98125zm2.3599,2.68051c-0.56188,1.16544 -0.4495,1.98125 -0.4495,1.98125l0.56188,-1.28199l0,-0.23309c0.11238,0 0,-0.23309 -0.11238,-0.46618zm-0.56188,-7.57537s-0.22475,0.46618 -0.33713,0.58272c-0.11238,0.11654 -0.89901,0.23309 -1.34851,0.34963c-0.4495,0.23309 -1.23614,0.58272 -1.46089,0.81581c-0.11238,0.11654 -0.11238,0.46618 -0.11238,0.58272c0,0 0.22475,0.11654 0.33713,0.11654l-1.01138,0.93235l0.22475,0.23309l2.47227,0.81581c0.56188,-0.46618 1.34851,-0.58272 1.34851,-0.58272c-0.4495,-0.23309 -2.3599,-1.0489 -2.92178,-1.28199c0,0 -0.33713,-0.11654 -0.33713,-0.23309l0,-0.34963s1.46089,-1.16544 3.70841,-1.16544l0.33713,-0.69926l-0.89901,-0.11654zm1.46089,10.25588l-0.4495,-1.39853l-0.11238,0l-0.67426,1.28199l0.11238,0.11654c0.56188,0.23309 1.12376,0 1.12376,0zm-16.96878,-13.28603l0.33713,0.11654s0.22475,0 0.22475,-0.23309l0,-0.46618l-0.33713,-0.23309l-0.4495,-0.11654c0.11238,0.11654 0.11238,0.23309 0.11238,0.23309l0.11238,0c0,-0.11654 0.11238,-0.11654 0.11238,0c0,0 0.22475,0.11654 0.11238,0.46618c0.11238,0.11654 -0.11238,0.23309 -0.22475,0.23309zm-1.01138,6.40993c-0.78663,1.51507 -0.22475,2.56397 -0.22475,2.56397l1.01138,-1.51507l0,-0.23309l-0.78663,-0.81581zm-7.30444,-8.9739l1.34851,0.34963c0.11238,0 0.89901,-0.11654 0.89901,-0.11654l-2.13514,-0.58272l-0.11238,0.34963zm0.78663,-0.34963c1.79802,0.23309 2.13514,0.58272 2.13514,0.58272s0.67426,-0.11654 1.01138,-0.11654c-0.56188,-0.46618 -3.03415,-1.28199 -3.03415,-1.28199s-0.11238,0.34963 -0.11238,0.81581zm2.69702,3.61287c-0.33713,0.23309 -0.67426,0.93235 -0.56188,1.51507c0.11238,0.58272 0.22475,0.58272 0.56188,0.58272c-0.56188,-0.23309 -0.4495,-1.16544 0,-1.74816c0.33713,-0.46618 0.67426,-0.11654 0.67426,-0.11654s-0.33713,-0.46618 -0.67426,-0.23309zm-7.9787,17.24853c-1.46089,0 -3.14653,0.58272 -2.13514,2.21434c8.31583,14.8011 17.08116,18.29743 20.78956,20.16213c1.68564,-0.81581 4.38266,-2.09779 7.64157,-4.42868c1.91039,-1.28199 1.68564,-3.26324 1.23614,-4.54522c-2.3599,-6.06029 -15.28314,-12.9364 -27.53213,-13.40257zm46.8608,-27.62096c-3.37128,-2.44743 -11.68711,-6.8761 -28.20638,-6.8761c-5.73118,0 -10.56335,0.58272 -14.38413,1.39853c0.89901,1.51507 1.34851,3.26324 1.34851,5.12794c0,2.56397 -0.89901,4.89485 -2.3599,6.64301c0.33713,0.11654 0.78663,0.23309 1.34851,0.34963l0.22475,-0.58272s0.22475,0 0.33713,0.11654c0,-0.58272 0.33713,-0.58272 0.33713,-0.58272s0,-0.11654 0.11238,-0.11654c0.56188,0.11654 2.13514,0.93235 2.8094,1.28199c0.67426,0.34963 0.67426,0.46618 0.67426,0.46618s1.57326,0 2.02277,-0.11654c0.4495,0 1.23614,-0.34963 2.3599,-0.69926s1.34851,-0.46618 1.57326,-0.46618s2.24752,0.11654 4.04554,0.34963c1.79802,0.23309 3.48366,0.93235 3.82078,1.16544l0.56188,0.11654l0.11238,-0.34963l-0.89901,-0.34963s0.11238,-0.58272 0.11238,-0.69926c0,-0.11654 0.11238,-0.23309 0.22475,-0.23309s1.12376,0.23309 1.46089,0.34963c0.33713,0.11654 1.46089,0.93235 1.57326,0.93235c0.11238,0 0.11238,0.11654 0.11238,0.11654c0,0.23309 -0.22475,0.69926 -0.22475,0.69926l-0.33713,-0.11654l0.33713,0.11654s0.33713,0.11654 0.4495,0.23309c0.11238,0.11654 0.4495,0.34963 0.78663,0.69926c0.33713,0.23309 0.22475,0.58272 0.22475,0.58272l0.78663,0.81581l0,0.34963l1.91039,1.98125l0,0.11654l-0.89901,0.58272s1.23614,-0.11654 2.13514,0.34963c0.89901,0.46618 1.01138,0.69926 1.01138,0.93235c-0.22475,0.11654 -0.56188,0.23309 -0.56188,0.23309c-0.67426,0.23309 -2.3599,1.39853 -2.3599,1.39853l0,0.11654l0.89901,0.23309c1.01138,-0.93235 2.8094,-1.28199 4.15791,-1.0489c4.60742,0.93235 7.75395,4.07904 8.4282,6.75956c0,0.11654 0.11238,0.34963 0.11238,0.46618c4.60742,-11.18824 4.15791,-19.22978 3.82078,-22.84265zm-16.18215,17.01544c0.11238,0.11654 0.22475,0.11654 0.33713,0.23309c0.67426,0.46618 1.01138,0.69926 1.12376,1.74816c0.11238,0.81581 -0.11238,1.98125 -0.67426,3.03015c3.14653,2.21434 7.52919,0.46618 9.21483,2.21434c-0.33713,-4.42868 -6.63019,-8.85735 -10.00147,-7.22574zm-25.84649,-5.71066l-0.22475,0.11654l0,0.93235l0.22475,-0.11654l0,-0.93235zm32.47667,14.45147c-2.3599,0 -4.71979,-0.81581 -6.40543,-2.9136l0,0.11654c-1.01138,1.39853 -2.13514,1.39853 -2.58465,1.39853c-0.4495,0 -1.91039,-0.69926 -2.47227,-1.39853c-0.56188,-0.69926 -0.56188,-1.98125 -0.56188,-1.98125l-2.24752,-0.81581l-2.8094,-1.63162l-0.4495,-0.11654c-0.89901,0.46618 -2.02277,0.11654 -3.03415,-0.69926c-0.11238,0.46618 -0.67426,1.63162 -1.34851,2.21434s-2.02277,1.39853 -3.03415,1.39853c-1.01138,0 -3.2589,-1.16544 -3.93316,-2.79706c-0.67426,-1.63162 0,-3.37978 0,-3.37978l-1.12376,-0.23309l-0.4495,-0.58272s-1.34851,1.16544 -2.8094,0.69926s-2.69702,-1.74816 -3.03415,-2.9136c-0.22475,-1.16544 0.11238,-2.21434 0.22475,-2.33088c-0.22475,-0.81581 -0.22475,-1.28199 -0.22475,-1.28199l-0.11238,0l0,-0.34963c-1.46089,1.0489 -3.14653,1.51507 -4.94454,1.51507c-2.02277,0 -3.93316,-0.69926 -5.50643,-1.74816c0.22475,2.56397 0.89901,5.59412 1.79802,8.9739c1.23614,4.66176 5.28167,6.17684 11.34998,7.22574c13.37275,2.21434 26.18361,12.81985 25.28461,19.34632c3.37128,-2.9136 6.96731,-7.22574 10.56335,-13.63566c1.46089,-2.44743 0.11238,-4.07904 -2.13514,-4.07904zm-35.73558,-16.08309l-0.11238,1.28199l0.78663,0l0,-0.11654l-0.11238,0l0,-0.11654l-0.11238,0l0.11238,-0.23309l0.11238,-0.58272l-0.11238,-0.11654l0,-0.23309l0.11238,-0.11654l0.11238,-1.39853l-0.56188,-0.34963c0.22475,-0.93235 0.78663,-1.74816 0.78663,-1.74816l-0.33713,0c-0.56188,0.69926 -0.78663,1.63162 -0.78663,1.63162s-0.11238,1.51507 -0.11238,1.74816c0,0.34963 0.22475,0.34963 0.22475,0.34963zm12.36136,7.80846l0.56188,1.86471c1.12376,-0.81581 1.34851,-2.09779 1.34851,-2.09779l-1.79802,0.11654l-0.11238,0.11654zm1.01138,-2.9136l-0.89901,1.63162l0.11238,0.11654l1.79802,0.11654c0,-1.28199 -1.01138,-1.86471 -1.01138,-1.86471zm-11.2376,-3.61287l-0.11238,0.69926l0.11238,0l0,-0.69926zm8.54058,4.42868l0.89901,0.69926l0.22475,-0.11654l1.01138,-1.63162c-1.23614,-0.11654 -2.13514,1.0489 -2.13514,1.0489zm-8.31583,-4.31213l-0.11238,-0.11654l0,0.81581l0.11238,0l0,-0.69926zm0.33713,0.23309l-0.11238,0.81581l0.11238,0l0,-0.81581zm0.22475,0.11654l-0.11238,0.81581l0.11238,0l0,-0.81581zm-0.4495,-0.23309l-0.11238,0.81581l0.11238,0l0,-0.81581z" id="path22"/>
   <path stroke="null" enable-background="new" opacity="0.4" class="st2" d="m79.68305,22.37243c0.33713,4.31213 0.89901,14.91765 -7.41682,29.83529c-8.20345,14.8011 -17.08116,18.29743 -20.78956,20.16213l0,-2.21434c6.85494,-3.84596 12.81087,-10.02279 17.53066,-19.8125c5.50643,-11.30478 6.18068,-20.51176 5.73118,-25.17353l4.94454,-2.79706z" id="path24"/>
   <path stroke="null" fill="url(#SVGID_3_)" enable-background="new" opacity="0.4" class="st3" d="m79.68305,22.37243c-3.37128,-2.44743 -11.68711,-6.8761 -28.20638,-6.8761c-5.73118,0 -10.56335,0.58272 -14.38413,1.39853c0.78663,1.28199 1.23614,2.79706 1.34851,4.42868c4.27029,-0.81581 8.87771,-1.28199 13.82225,-1.16544c10.56335,0.11654 19.10392,2.56397 22.58758,5.0114l4.83217,-2.79706" id="path31"/>
   <circle stroke="null" fill="url(#SVGID_4_)" class="st4" cx="28.77671" cy="22.02279" r="6.96731" id="circle40"/>
  </g>
  <line stroke-linecap="undefined" stroke-linejoin="undefined" id="svg_3" y2="82.5" x2="131.5" y1="21.5" x1="76.5" stroke-opacity="0" stroke="#000000" fill="none"/>
 </g>
</svg>