<?xml version="1.0" encoding="UTF-8" standalone="no"?>
<!DOCTYPE svg PUBLIC "-//W3C//DTD SVG 1.1//EN" "http://www.w3.org/Graphics/SVG/1.1/DTD/svg11.dtd">
<svg version="1.1" xmlns="http://www.w3.org/2000/svg" xmlns:xlink="http://www.w3.org/1999/xlink" preserveAspectRatio="xMidYMid meet" viewBox="0 0 640 640" width="640" height="640"><defs><path d="M51 51C22.95 51 0 73.95 0 102C0 132.6 0 377.4 0 408C0 436.05 22.95 459 51 459C91.8 459 418.2 459 459 459C487.05 459 510 436.05 510 408C510 377.4 510 132.6 510 102C510 73.95 487.05 51 459 51C377.4 51 91.8 51 51 51ZM408 408L408 183.6L255 280.5L102 183.6L102 408L51 408L51 102L81.6 102L255 209.1L428.4 102L459 102L459 408L408 408Z" id="a1btOMtM0g"></path></defs><g><g><g><use xlink:href="#a1btOMtM0g" opacity="1" fill="#ffffff" fill-opacity="1"></use><g><use xlink:href="#a1btOMtM0g" opacity="1" fill-opacity="0" stroke="#000000" stroke-width="1" stroke-opacity="0"></use></g></g></g></g></svg>